# xmcd CD database file
#
# Track frame offsets:
#	150
#	11519
#	51197
#	69922
#	90820
#	118656
#	155576
#	188065
#	212673
#	229475
#	249830
#	265267
#	292935
#	311238
#
# Disc length: 4352 seconds
#
# Revision: 1
# Processed by: cddbd v1.4PL0 Copyright (c) Steve Scherf et al.
# Submitted via: CDex 1.40Beta9
#
DISCID=b910fe0e
DTITLE=G. Love - Live @ the Cow Haus 1-9-97 Disc 1
DYEAR=1997
DGENRE=Blues
TTITLE0=Unknown01
TTITLE1=Unknown02
TTITLE2=Unknown03
TTITLE3=Find My Peace
TTITLE4=Unknown05
TTITLE5=Just Like Train
TTITLE6=Mean Old World
TTITLE7=She Got Sauce
TTITLE8=Livin' on a Sunny Side of Money
TTITLE9=I've Got to Keep on Movin'
TTITLE10=Satisfaction?
TTITLE11=Unknown12
TTITLE12=Unknown13
TTITLE13=Unknown14
EXTD=YEAR: 1997 ID3G: 0
EXTT0=
EXTT1=
EXTT2=
EXTT3=
EXTT4=
EXTT5=
EXTT6=
EXTT7=
EXTT8=
EXTT9=
EXTT10=
EXTT11=
EXTT12=
EXTT13=
PLAYORDER=
